<svg xmlns="http://www.w3.org/2000/svg" viewBox="0 0 120 120"><defs><style>.cls-1{fill:#fff;}</style></defs><g id="Layer_1" data-name="Layer 1"><path class="cls-1" d="M104.86,56A79.55,79.55,0,0,0,82.28,37.09c-7.75-4.26-14.92-6.24-22.57-6.25a39.58,39.58,0,0,0-16.06,3.33c-10.5,4.39-20,11.61-29,22.07-2.08,2.41-2.07,4.82,0,7.36A81.91,81.91,0,0,0,36.33,82.27,46.87,46.87,0,0,0,58.2,89.12c.6,0,1.2,0,1.8,0A44.41,44.41,0,0,0,80.22,84c9-4.51,17-11,24.57-19.79C107.58,60.94,107.6,59.26,104.86,56ZM101,60.93C93.87,69.22,86.33,75.3,78,79.52c-6.75,3.39-13.14,4.9-19.54,4.61A42,42,0,0,1,38.86,78,76.55,76.55,0,0,1,18.54,60.42a4.14,4.14,0,0,1-.39-.54,2.93,2.93,0,0,1,.29-.38c8.49-9.86,17.37-16.63,27.14-20.72a35.23,35.23,0,0,1,13.5-2.94h.62c6.78,0,13.19,1.79,20.18,5.63A74.62,74.62,0,0,1,101,59.25c.13.15.44.52.67.82C101.47,60.38,101.14,60.76,101,60.93Z"/><path class="cls-1" d="M74.75,59.54a16.78,16.78,0,0,0-1-4.44,1.65,1.65,0,0,0-3.18.84,3.21,3.21,0,0,0,.15.53l0,.11A12.95,12.95,0,0,1,57,73.62a12.31,12.31,0,0,1-7.94-4.07A12.94,12.94,0,0,1,62.21,48.36a14,14,0,0,1,4.07,2,1.6,1.6,0,0,0,2.27-.4,1.69,1.69,0,0,0-.4-2.31A16.32,16.32,0,0,0,62.32,45a16.12,16.12,0,0,0-9,.43A15.91,15.91,0,0,0,44,53.56a16.19,16.19,0,0,0,4.66,20.1A15.87,15.87,0,0,0,58.44,77a18,18,0,0,0,2.41-.17,15.6,15.6,0,0,0,8.48-3.92,16.32,16.32,0,0,0,5.49-12.1v0l0-.42C74.79,60.1,74.78,59.82,74.75,59.54Z"/><path class="cls-1" d="M75.87,44.58a1.68,1.68,0,0,0-1.72.57l-12.3,13.1L57.3,63.08l-2.45-2.17L52,58.41A1.82,1.82,0,0,0,50.75,58a1.66,1.66,0,0,0-.89,3l6.32,5.58a1.9,1.9,0,0,0,1.24.54,1.81,1.81,0,0,0,1.32-.66q1.59-1.66,3.15-3.34l11-11.73q1.83-2,3.66-3.87a1.72,1.72,0,0,0,.51-1.7A1.54,1.54,0,0,0,75.87,44.58Z"/></g></svg>