<svg xmlns="http://www.w3.org/2000/svg" viewBox="0 0 120 120"><defs><style>.cls-1{fill:#fff;}</style></defs><g id="Layer_1" data-name="Layer 1"><path class="cls-1" d="M88.81,27.63l-3.18-3.18a1.69,1.69,0,0,0-2.31,0l-27.9,27.9-.1.11a1.52,1.52,0,0,0-.45,1L54.3,58a1,1,0,0,0,1,1h0l4.38-.57a1.49,1.49,0,0,0,1.09-.45l28-28a1.63,1.63,0,0,0,0-2.31Z"/><polygon class="cls-1" points="80.91 91.17 35.55 91.17 35.55 31.24 73.13 31.24 78.42 26.4 30.71 26.4 30.71 96.01 85.75 96.01 85.75 36.45 80.91 41.96 80.91 91.17"/></g></svg>