<svg xmlns="http://www.w3.org/2000/svg" viewBox="0 0 120 120"><defs><style>.cls-1{fill:#fff;}</style></defs><g id="Layer_1" data-name="Layer 1"><path class="cls-1" d="M79.07,91.13h-.88c-19.08,0-34.72,0-53.8,0a7,7,0,0,1-7-5.1,8.52,8.52,0,0,1-.23-2q0-29.79,0-59.6a6.76,6.76,0,0,1,6.43-6.88q.51,0,1,0H83.26A7.19,7.19,0,0,1,89,20a7,7,0,0,1,1.69,4.8V80c-1-.91-1.86-1.68-2.67-2.52-.19-.19-.16-.63-.16-1V25.18c0-.37,0-.74,0-1.1a3.84,3.84,0,0,0-3.38-3.6,8,8,0,0,0-1.1-.08q-29.45,0-58.89,0a5.91,5.91,0,0,0-2.36.46A3.51,3.51,0,0,0,20,24.26q0,30,0,60.08a3.82,3.82,0,0,0,3.68,4c.42,0,.84,0,1.26,0,17.84,0,32.25,0,50.09,0a2.64,2.64,0,0,1,2.27.94C77.8,89.88,78.4,90.44,79.07,91.13Z"/><path class="cls-1" d="M72.44,71.59l2.72,2.78c.29-.16.6-.35.93-.51a2.29,2.29,0,0,1,3,.41l23,21.32a2.26,2.26,0,0,1,.58,2.86A7.46,7.46,0,0,1,99.43,102a2.37,2.37,0,0,1-3.16-.37L82.33,88.65c-2.8-2.6-5.57-5.22-8.4-7.78-1.53-1.37-1.88-2.14-.85-4.19L70.5,73.87A22,22,0,1,1,67.74,40a21.57,21.57,0,0,1,7.55,9.12A21.83,21.83,0,0,1,77,60.79,22.1,22.1,0,0,1,72.44,71.59ZM74.36,58A19.09,19.09,0,1,0,55.28,77.07,19,19,0,0,0,74.36,58Z"/><path class="cls-1" d="M53.93,30.47H36.58a6,6,0,0,1-.95,0,1.24,1.24,0,0,1-1.06-1.28,1.27,1.27,0,0,1,.94-1.39,2.3,2.3,0,0,1,.69-.1q17.71,0,35.42,0a2,2,0,0,1,1.41.64,1.34,1.34,0,0,1-1.19,2.14c-1.44,0-2.89,0-4.34,0Z"/><path class="cls-1" d="M38.67,41c-.76.93-1.43,1.76-2.15,2.56a1,1,0,0,1-.68.26c-3.44,0-6.88,0-10.32,0-1.27,0-2-.78-1.7-1.79a1.21,1.21,0,0,1,1.15-1C29.51,41,34.05,41,38.67,41Z"/><path class="cls-1" d="M71.89,41H82.68a1.31,1.31,0,0,1,1.39,1.23,1.34,1.34,0,0,1-1.16,1.52,2.68,2.68,0,0,1-.7.08c-2.44,0-4.89,0-7.33,0a1.54,1.54,0,0,1-1-.47C73.23,42.67,72.62,41.89,71.89,41Z"/><path class="cls-1" d="M34.25,68.83c-3.12,0-6.13,0-9.15,0a1.28,1.28,0,0,1-1.33-1.36A1.35,1.35,0,0,1,25.15,66c1.26-.05,2.52,0,3.78,0s2.41,0,3.62,0a.8.8,0,0,1,.61.3C33.54,67.11,33.86,67.91,34.25,68.83Z"/><path class="cls-1" d="M32,53.52l-.37,2.82H28.82c-1.18,0-2.36,0-3.55,0A1.36,1.36,0,0,1,23.77,55a1.38,1.38,0,0,1,1.53-1.43C27.52,53.51,29.75,53.52,32,53.52Z"/><path class="cls-1" d="M76.36,68.84c.38-.9.68-1.68,1-2.43A.75.75,0,0,1,78,66c1.55,0,3.1,0,4.65,0a1.4,1.4,0,1,1,0,2.8C80.53,68.85,78.49,68.84,76.36,68.84Z"/><path class="cls-1" d="M78.9,56.33l-.36-2.79c1.48,0,2.92,0,4.36,0A1.3,1.3,0,0,1,84.07,55a1.33,1.33,0,0,1-1.38,1.33C81.46,56.36,80.22,56.33,78.9,56.33Z"/><path class="cls-1" d="M52.28,61.09l5.51-7.36c1-1.39,2-2.8,3.07-4.2A2.59,2.59,0,0,1,64.38,49a2.56,2.56,0,0,1,.69,3.6q-5.22,7.06-10.5,14.1a2.65,2.65,0,0,1-4.26.13c-1.94-2.2-3.84-4.43-5.73-6.67a2.6,2.6,0,0,1,4-3.34l3.17,3.68C51.9,60.68,52.07,60.87,52.28,61.09Z"/></g></svg>