<svg xmlns="http://www.w3.org/2000/svg" viewBox="0 0 120 120"><defs><style>.cls-1{fill:#fff;}</style></defs><g id="Layer_1" data-name="Layer 1"><path class="cls-1" d="M32.17,59.05V93.36H26.61v-.78q0-30.54,0-61.07a1.06,1.06,0,0,1,.65-1.08,33.26,33.26,0,0,1,16.3-3.79,33.79,33.79,0,0,1,12.31,2.19A34.17,34.17,0,0,1,60.34,31a33.62,33.62,0,0,0,17.32,3.95,33.52,33.52,0,0,0,11.67-2.21c1.34-.52,2.63-1.19,4-1.82,0,.19,0,.38,0,.58,0,9.77,0,19.54,0,29.31a1,1,0,0,1-.61,1,32.84,32.84,0,0,1-16.36,3.82,34.21,34.21,0,0,1-12.31-2.18,31,31,0,0,1-4.11-2,32.1,32.1,0,0,0-15-4.08,35.91,35.91,0,0,0-12.4,1.56Zm0-6c.25,0,.44,0,.62-.08a43.43,43.43,0,0,1,14.28-1.11,37.08,37.08,0,0,1,12.85,3.27c1.57.74,3,1.65,4.62,2.38a26.93,26.93,0,0,0,10.11,2.43,30.89,30.89,0,0,0,12.57-1.71.79.79,0,0,0,.62-.89c0-5.86,0-11.72,0-17.57,0-.2,0-.4,0-.61-.24,0-.43,0-.61.09A43.45,43.45,0,0,1,72.9,40.36,37.24,37.24,0,0,1,60.11,37.1c-1.56-.74-3-1.65-4.61-2.38a27.12,27.12,0,0,0-10.18-2.45A30.73,30.73,0,0,0,32.82,34a.83.83,0,0,0-.66.94c0,3,0,6.09,0,9.13Z"/></g></svg>