<svg xmlns="http://www.w3.org/2000/svg" viewBox="0 0 120 120"><defs><style>.cls-1{fill:#fff;}</style></defs><g id="Layer_1" data-name="Layer 1"><path class="cls-1" d="M69.53,39.79l.44.84q4.47,8.94,8.94,17.89A2.4,2.4,0,0,0,81.31,60c6.12,0,12.24,0,18.35,0a4.22,4.22,0,0,0,1.06-.13,1.81,1.81,0,0,0,1.08-2.62,2.17,2.17,0,0,0-2.2-1c-5.64,0-11.27,0-16.9,0a1,1,0,0,1-1-.64Q76.61,45.4,71.5,35.24a7.17,7.17,0,0,0-.53-.93,1.82,1.82,0,0,0-3,.07,7.22,7.22,0,0,0-.44.88l-20.31,44-.37.76c-.17-.37-.3-.64-.41-.91-3-7.06-6-14.12-9-21.19a2.51,2.51,0,0,0-2.63-1.73c-4.74,0-9.48,0-14.22,0a4.72,4.72,0,0,0-1.13.13,1.82,1.82,0,0,0-1,2.94,2.21,2.21,0,0,0,1.85.73c4.38,0,8.76,0,13.15,0a1,1,0,0,1,1.1.76c2.18,5.22,4.39,10.43,6.59,15.65,1.22,2.88,2.43,5.77,3.66,8.64a2,2,0,0,0,2.32,1.43c1,0,1.43-.72,1.8-1.52Q59,62.77,69.14,40.6C69.25,40.36,69.38,40.11,69.53,39.79Z"/><path class="cls-1" d="M69.53,39.79c-.15.32-.28.57-.39.81Q59,62.77,48.86,84.94c-.37.8-.8,1.47-1.8,1.52A2,2,0,0,1,44.74,85c-1.23-2.87-2.44-5.76-3.66-8.64-2.2-5.22-4.41-10.43-6.59-15.65a1,1,0,0,0-1.1-.76c-4.39,0-8.77,0-13.15,0a2.21,2.21,0,0,1-1.85-.73,1.82,1.82,0,0,1,1-2.94,4.72,4.72,0,0,1,1.13-.13c4.74,0,9.48,0,14.22,0a2.51,2.51,0,0,1,2.63,1.73c3,7.07,6,14.13,9,21.19.11.27.24.54.41.91l.37-.76,20.31-44a7.22,7.22,0,0,1,.44-.88,1.82,1.82,0,0,1,3-.07,7.17,7.17,0,0,1,.53.93q5.09,10.17,10.16,20.33a1,1,0,0,0,1,.64c5.63,0,11.26,0,16.9,0a2.17,2.17,0,0,1,2.2,1,1.81,1.81,0,0,1-1.08,2.62,4.22,4.22,0,0,1-1.06.13c-6.11,0-12.23,0-18.35,0a2.4,2.4,0,0,1-2.4-1.49q-4.45-9-8.94-17.89Z"/></g></svg>