<svg xmlns="http://www.w3.org/2000/svg" viewBox="0 0 120 120"><defs><style>.cls-1{fill:#fff;}</style></defs><g id="Layer_1" data-name="Layer 1"><path class="cls-1" d="M58,82.85v-1q0-20.16,0-40.33a2.94,2.94,0,0,0-.27-1.28A12.58,12.58,0,0,0,46,33c-5.88-.1-11.77,0-17.66,0-.11,0-.22,0-.45.06v1q0,18.69,0,37.37a4.39,4.39,0,0,1-.42,1.85,1.66,1.66,0,0,1-2,.79A1.71,1.71,0,0,1,24,72.57a6.53,6.53,0,0,1-.11-1.17V31.66c0-2,.69-2.7,2.67-2.7C32.75,29,39,29,45.2,29a16.94,16.94,0,0,1,14.45,7c.09.11.19.21.28.31s0,0,0,0c1.14-1.15,2.17-2.34,3.35-3.36a16.09,16.09,0,0,1,11-3.93H93.67c1.71,0,2.49.76,2.49,2.46V79.61c0,1.74-.78,2.52-2.53,2.52q-9.67,0-19.35,0A12.72,12.72,0,0,0,65.49,85a25.7,25.7,0,0,0-2.95,3.52,6.72,6.72,0,0,0-.66,1.28A2,2,0,0,1,60,91.05a2.14,2.14,0,0,1-1.88-1.21,24.59,24.59,0,0,0-2.44-3.72,11.52,11.52,0,0,0-8.76-3.93c-6.76-.1-13.52,0-20.28-.06A5.83,5.83,0,0,1,25.32,82a2,2,0,0,1-1.48-2,2,2,0,0,1,1.69-1.84,7,7,0,0,1,1,0c6,0,12.06.08,18.08,0C49.63,78,54.1,79.21,58,82.85ZM92.1,33c-.23,0-.4-.05-.56-.05-5.81,0-11.61,0-17.41,0a12.82,12.82,0,0,0-11,5.81,5.21,5.21,0,0,0-1.09,3q.06,19.95,0,39.9v1c.18-.11.26-.14.32-.19A17.18,17.18,0,0,1,74.57,78.1c5.55.05,11.1,0,16.65,0h.88Z"/></g></svg>