<svg xmlns="http://www.w3.org/2000/svg" viewBox="0 0 120 120"><defs><style>.cls-1{fill:#fff;}</style></defs><g id="Layer_1" data-name="Layer 1"><path class="cls-1" d="M25.24,49.58a5.43,5.43,0,0,0-.57,0,3.92,3.92,0,0,0-3.51,2.69,3.79,3.79,0,0,0,.9,4.11,4.41,4.41,0,0,0,3.52,1.24H97.73a6.58,6.58,0,0,0,.94-.05.53.53,0,0,0,.39-.31.52.52,0,0,0-.08-.51,2.8,2.8,0,0,0-.39-.45L83.8,41.11q-2.88-3-5.78-5.94A4,4,0,0,0,73.74,34a3.66,3.66,0,0,0-2.7,2.8,4,4,0,0,0,1.13,4q2.2,2.3,4.44,4.56a2.45,2.45,0,0,1,.61,2.75,2.42,2.42,0,0,1-2.29,1.52c-.21,0-.42,0-.63,0H25.24Z"/><path class="cls-1" d="M94.76,70.42a5.43,5.43,0,0,0,.57,0,3.92,3.92,0,0,0,3.51-2.69,3.79,3.79,0,0,0-.9-4.11,4.41,4.41,0,0,0-3.52-1.24H22.27a6.58,6.58,0,0,0-.94.05.53.53,0,0,0-.39.31.52.52,0,0,0,.08.51,2.8,2.8,0,0,0,.39.45L36.2,78.89q2.88,3,5.78,5.94A4,4,0,0,0,46.26,86a3.66,3.66,0,0,0,2.7-2.8,4,4,0,0,0-1.13-4q-2.2-2.3-4.44-4.56a2.45,2.45,0,0,1-.61-2.75,2.42,2.42,0,0,1,2.29-1.52c.21,0,.42,0,.63,0H94.76Z"/></g></svg>