<svg xmlns="http://www.w3.org/2000/svg" viewBox="0 0 120 120"><defs><style>.cls-1{fill:#fff;}</style></defs><g id="Layer_1" data-name="Layer 1"><path class="cls-1" d="M93.09,36.71a4.45,4.45,0,0,1,1.94.41A2.54,2.54,0,0,1,96.21,40,2.67,2.67,0,0,1,94,42c-.22,0-.43,0-.65,0H52.93A2.65,2.65,0,0,1,50,39.75a2.61,2.61,0,0,1,2.14-3,7.39,7.39,0,0,1,1.15-.06C59.89,36.69,86.43,36.68,93.09,36.71Z"/><path class="cls-1" d="M73.18,59.83c6.64,0,13.27,0,19.91,0a4.3,4.3,0,0,1,1.74.32,2.51,2.51,0,0,1,1.39,2.94,2.66,2.66,0,0,1-2.32,2.06,5.78,5.78,0,0,1-.72,0H53a2.73,2.73,0,0,1-3-2.07,2.64,2.64,0,0,1,2.31-3.27c.31,0,.62,0,.94,0Z"/><path class="cls-1" d="M73.13,88.28H52.93A2.71,2.71,0,0,1,50,86.2a2.64,2.64,0,0,1,2.31-3.26,8.43,8.43,0,0,1,.87,0H93a4.7,4.7,0,0,1,1.75.29,2.53,2.53,0,0,1,1.45,3,2.66,2.66,0,0,1-2.39,2.06,6.33,6.33,0,0,1-.87,0Z"/><path class="cls-1" d="M32.62,86c1.61-2.16,3.2-4.27,4.78-6.38,1.25-1.68,2.49-3.36,3.76-5a2.51,2.51,0,0,1,2.87-1,2.46,2.46,0,0,1,1.89,2.43,3.39,3.39,0,0,1-.59,1.8q-5.19,7-10.46,14c-1.18,1.56-3,1.55-4.37,0s-2.69-3.14-4-4.71c-.7-.82-1.41-1.64-2.1-2.48a2.67,2.67,0,1,1,4.09-3.43l3.59,4.14C32.22,85.6,32.4,85.78,32.62,86Z"/><path class="cls-1" d="M32.61,39.85c1.92-2.55,3.79-5.05,5.65-7.55,1.07-1.43,2.1-2.87,3.15-4.31A2.68,2.68,0,0,1,45,27.43a2.64,2.64,0,0,1,.7,3.7Q40.38,38.38,35,45.59a2.73,2.73,0,0,1-4.38.14c-2-2.26-3.93-4.55-5.87-6.85a2.67,2.67,0,0,1,4.09-3.42C29.9,36.72,31,38,32.06,39.23,32.22,39.43,32.4,39.62,32.61,39.85Z"/><path class="cls-1" d="M32.57,62.92c1.4-1.89,2.75-3.69,4.1-5.5s2.89-3.9,4.34-5.84a2.62,2.62,0,0,1,2.71-1.12,2.51,2.51,0,0,1,2.05,1.72A2.92,2.92,0,0,1,45.18,55l-4.61,6.19-5.34,7.17c-1.46,2-3.32,2-4.92.16-1.83-2.13-3.67-4.26-5.5-6.4a2.67,2.67,0,1,1,3.89-3.67C30,59.9,31.22,61.37,32.57,62.92Z"/></g></svg>