<?xml version="1.0" encoding="utf-8"?>
<!-- Generator: Adobe Illustrator 25.2.1, SVG Export Plug-In . SVG Version: 6.00 Build 0)  -->
<svg version="1.1" id="Layer_1" xmlns="http://www.w3.org/2000/svg" xmlns:xlink="http://www.w3.org/1999/xlink" x="0px" y="0px"
	 viewBox="0 0 66.8 66.71" style="enable-background:new 0 0 66.8 66.71;" xml:space="preserve">
<style type="text/css">
	.st0{fill:#FFFFFF;}
</style>
<g>
	<path class="st0" d="M5.57,32.41c0,11.44,0,22.85,0,34.3c-1.85,0-3.66,0-5.55,0c0-0.28,0-0.53,0-0.78c0-20.36,0-40.71-0.01-61.07
		c0-0.55,0.17-0.82,0.65-1.08C5.74,1.02,11.22-0.02,16.95,0c4.23,0.01,8.36,0.65,12.31,2.18c1.54,0.6,3.04,1.35,4.48,2.16
		c5.39,3.01,11.22,4.06,17.31,3.95c4.01-0.07,7.92-0.75,11.67-2.2c1.35-0.52,2.64-1.19,4.01-1.82c0.02,0.19,0.05,0.38,0.05,0.58
		c0,9.77,0,19.54,0.01,29.31c0,0.51-0.19,0.73-0.61,0.96c-5.1,2.81-10.61,3.84-16.36,3.82c-4.23-0.01-8.35-0.66-12.31-2.19
		c-1.41-0.55-2.8-1.21-4.11-1.97c-4.66-2.68-9.71-3.86-15.03-4.08c-4.22-0.17-8.37,0.28-12.41,1.56
		C5.86,32.29,5.76,32.34,5.57,32.41z M5.57,26.41c0.25-0.03,0.44-0.04,0.62-0.08c4.7-1.15,9.46-1.53,14.28-1.11
		c4.47,0.39,8.79,1.34,12.85,3.27c1.56,0.74,3.05,1.65,4.61,2.38c3.2,1.5,6.59,2.22,10.11,2.43c4.31,0.25,8.5-0.23,12.57-1.72
		c0.46-0.17,0.63-0.38,0.63-0.89c-0.02-5.86-0.01-11.71-0.01-17.57c0-0.2-0.02-0.4-0.04-0.6c-0.24,0.03-0.43,0.04-0.61,0.08
		c-4.7,1.16-9.46,1.53-14.28,1.11c-4.44-0.39-8.74-1.34-12.79-3.25c-1.56-0.74-3.05-1.65-4.61-2.39c-3.22-1.52-6.63-2.24-10.17-2.44
		c-4.28-0.24-8.46,0.22-12.5,1.71C5.73,7.52,5.55,7.73,5.55,8.27c0.03,3.04,0.01,6.09,0.01,9.14C5.57,20.38,5.57,23.35,5.57,26.41z"
		/>
</g>
</svg>
