<?xml version="1.0" encoding="utf-8"?>
<!-- Generator: Adobe Illustrator 25.2.1, SVG Export Plug-In . SVG Version: 6.00 Build 0)  -->
<svg version="1.1" id="Layer_1" xmlns="http://www.w3.org/2000/svg" xmlns:xlink="http://www.w3.org/1999/xlink" x="0px" y="0px"
	 viewBox="0 0 25.51 32.63" style="enable-background:new 0 0 25.51 32.63;" xml:space="preserve">
<style type="text/css">
	.st0{fill:#B8222E;}
</style>
<g id="header_x5F__x5F_user-icon">
	<g>
		<path class="st0" d="M8.34,14.79C3.99,11.86,3.73,6.08,6.7,2.77C9.82-0.69,15-0.94,18.25,2.18c1.86,1.78,2.72,3.97,2.51,6.55
			c-0.21,2.57-1.45,4.57-3.51,6c0.92,0.48,1.88,0.89,2.74,1.46c2.82,1.85,4.59,4.46,5.28,7.76c0.16,0.78,0.24,1.6,0.25,2.4
			c0.04,1.99,0.01,3.98,0.01,5.98c0,0.09-0.01,0.18-0.02,0.3c-8.5,0-16.98,0-25.51,0c0-0.16,0-0.3,0-0.45c0-1.86,0-3.72,0-5.57
			c0-5.33,3.01-9.73,7.97-11.66C8.08,14.91,8.19,14.86,8.34,14.79z M23.58,30.71c0.01-0.09,0.02-0.17,0.02-0.25
			c0-1.36,0.01-2.72,0-4.08c-0.01-1.29-0.23-2.54-0.71-3.74c-1-2.48-2.7-4.31-5.1-5.49c-2.39-1.17-4.93-1.23-7.5-0.83
			c-2,0.32-3.71,1.25-5.17,2.64c-1.62,1.54-2.65,3.41-3.02,5.62c-0.34,2-0.13,4.03-0.16,6.04c0,0.02,0.03,0.04,0.04,0.08
			C9.17,30.71,16.37,30.71,23.58,30.71z M12.75,14.18c3.37,0.01,6.13-2.74,6.13-6.1c0.01-3.36-2.75-6.12-6.11-6.12
			c-3.37-0.01-6.13,2.74-6.13,6.1C6.63,11.41,9.39,14.17,12.75,14.18z"/>
	</g>
</g>
</svg>
