<?xml version="1.0" encoding="utf-8"?>
<!-- Generator: Adobe Illustrator 25.2.1, SVG Export Plug-In . SVG Version: 6.00 Build 0)  -->
<svg version="1.1" id="Layer_1" xmlns="http://www.w3.org/2000/svg" xmlns:xlink="http://www.w3.org/1999/xlink" x="0px" y="0px"
	 viewBox="0 0 287.29 45" style="enable-background:new 0 0 287.29 45;" xml:space="preserve">
<style type="text/css">
	.st0{fill:#B8222E;}
	.st1{fill:#FFFFFF;}
</style>
<g>
	<path class="st0" d="M175.05,0h-4.01H0v45h171.04h4.01h112.24V0H175.05z M285.09,42.8H175.05V2.2h110.04V42.8z"/>
	<g>
		<path class="st1" d="M20.56,14.05h-7.32V30.6h2.95v-6.39h4.36c3.43,0,5.83-2.1,5.83-5.11C26.39,16.13,23.99,14.05,20.56,14.05z
			 M23.44,19.11c0,1.64-1.13,2.54-3.18,2.54H16.2v-5.02h4.05C22.3,16.62,23.44,17.5,23.44,19.11z"/>
		<rect x="37.61" y="14.05" class="st1" width="2.95" height="16.56"/>
		<polygon class="st1" points="59.09,26.55 54.6,14.05 51.6,14.05 57.74,30.6 60.43,30.6 66.55,14.05 63.56,14.05 		"/>
		<path class="st1" d="M84.16,13.76c-4.79,0-8.13,3.52-8.13,8.57s3.34,8.57,8.13,8.57c4.77,0,8.11-3.52,8.11-8.57
			S88.93,13.76,84.16,13.76z M89.24,22.33c0,3.5-2.09,5.95-5.08,5.95c-2.99,0-5.08-2.45-5.08-5.95c0-3.5,2.09-5.95,5.08-5.95
			C87.15,16.38,89.24,18.82,89.24,22.33z"/>
		<polygon class="st1" points="101.93,16.67 107.53,16.67 107.53,30.6 110.48,30.6 110.48,16.67 116.08,16.67 116.08,14.05 
			101.93,14.05 		"/>
		<path class="st1" d="M130.13,14.05l-6.41,16.56h3.05l1.23-3.51h7.25l1.23,3.51h3.05l-6.41-16.56H130.13z M134.32,24.53h-5.41
			l2.7-7.32L134.32,24.53z"/>
		<polygon class="st1" points="153.77,27.99 153.77,14.05 150.82,14.05 150.82,30.6 161.99,30.6 161.99,27.99 		"/>
	</g>
	<g>
		<path class="st0" d="M195.42,14.04h-7.32V30.6h2.95v-6.39h4.36c3.43,0,5.83-2.1,5.83-5.11C201.25,16.12,198.85,14.04,195.42,14.04
			z M198.3,19.1c0,1.64-1.13,2.54-3.18,2.54h-4.05v-5.02h4.05C197.16,16.61,198.3,17.5,198.3,19.1z"/>
		<path class="st0" d="M216.16,14.04l-6.41,16.56h3.05l1.23-3.51h7.25l1.23,3.51h3.05l-6.41-16.56H216.16z M220.35,24.52h-5.41
			l2.7-7.32L220.35,24.52z"/>
		<polygon class="st0" points="233.18,16.66 238.78,16.66 238.78,30.6 241.74,30.6 241.74,16.66 247.34,16.66 247.34,14.04 
			233.18,14.04 		"/>
		<polygon class="st0" points="269.09,14.04 269.09,20.84 261.37,20.84 261.37,14.04 258.42,14.04 258.42,30.6 261.37,30.6 
			261.37,23.46 269.09,23.46 269.09,30.6 272.04,30.6 272.04,14.04 		"/>
	</g>
</g>
</svg>
